<svg enable-background="new 0 0 1466.1 699.15" viewBox="0 0 1466.1 699.15" xmlns="http://www.w3.org/2000/svg"><path d="m1168.42 233.05c-13.36 0-26.18 5.31-35.63 14.76l-140 140c-11.49 11.49-26.77 17.82-43.03 17.82s-31.53-6.33-43.03-17.82l-107.98-107.98c-30.17-30.17-70.28-46.78-112.95-46.78h-333.37c-63.1 0-116.92 48.98-119.3 112.03-2.5 66.29 50.7 121.02 116.44 121.02h388.1l-45.61-45.61c-9.51-9.51-22.41-14.85-35.86-14.85h-304.98c-29.18 0-54.72-21.61-57.45-50.66-3.14-33.33 23.11-61.46 55.8-61.46h336.23c26.33 0 51.58 10.46 70.2 29.08l106.19 106.19c22.22 22.22 51.81 36.15 83.22 37.24 34.02 1.18 66.2-11.52 90.13-35.46l197.51-197.51h-64.63z" fill="#fff"/></svg>